<svg xmlns="http://www.w3.org/2000/svg" xmlns:xlink="http://www.w3.org/1999/xlink" width="500" zoomAndPan="magnify" viewBox="0 0 375 374.999991" height="500" preserveAspectRatio="xMidYMid meet" version="1.0"><metadata><ContainsAiGeneratedContent>Yes</ContainsAiGeneratedContent></metadata><defs><clipPath id="ad902364c5"><path d="M 113 112.5 L 262 112.5 L 262 262.5 L 113 262.5 Z M 113 112.5 " clip-rule="nonzero"/></clipPath></defs><g clip-path="url(#ad902364c5)"><path fill="#818a8d" d="M 146.6875 153.59375 C 146.691406 152.25 146.757812 150.910156 146.890625 149.574219 C 147.023438 148.238281 147.222656 146.910156 147.484375 145.59375 C 147.746094 144.277344 148.074219 142.972656 148.464844 141.6875 C 148.855469 140.402344 149.308594 139.140625 149.824219 137.902344 C 150.335938 136.660156 150.910156 135.445312 151.542969 134.261719 C 152.179688 133.078125 152.867188 131.929688 153.613281 130.8125 C 154.363281 129.695312 155.160156 128.617188 156.011719 127.578125 C 156.863281 126.539062 157.765625 125.546875 158.714844 124.597656 C 159.664062 123.648438 160.660156 122.746094 161.699219 121.894531 C 162.734375 121.039062 163.8125 120.242188 164.929688 119.496094 C 166.046875 118.75 167.195312 118.058594 168.378906 117.425781 C 169.566406 116.789062 170.777344 116.214844 172.019531 115.703125 C 173.257812 115.1875 174.523438 114.734375 175.808594 114.34375 C 177.09375 113.953125 178.394531 113.625 179.710938 113.363281 C 181.027344 113.097656 182.355469 112.898438 183.691406 112.765625 C 185.027344 112.632812 186.367188 112.566406 187.710938 112.566406 C 241.929688 114.484375 242.039062 192.53125 187.847656 194.613281 C 186.503906 194.617188 185.160156 194.554688 183.820312 194.425781 C 182.480469 194.296875 181.152344 194.101562 179.828125 193.84375 C 178.507812 193.582031 177.203125 193.257812 175.914062 192.871094 C 174.625 192.484375 173.359375 192.035156 172.113281 191.519531 C 170.871094 191.007812 169.652344 190.4375 168.464844 189.804688 C 167.277344 189.171875 166.121094 188.480469 165.003906 187.738281 C 163.882812 186.992188 162.800781 186.191406 161.757812 185.339844 C 160.714844 184.488281 159.71875 183.585938 158.765625 182.636719 C 157.8125 181.6875 156.90625 180.691406 156.050781 179.652344 C 155.195312 178.613281 154.394531 177.535156 153.644531 176.417969 C 152.894531 175.300781 152.203125 174.148438 151.566406 172.960938 C 150.929688 171.773438 150.351562 170.558594 149.835938 169.316406 C 149.320312 168.074219 148.863281 166.808594 148.472656 165.519531 C 148.078125 164.234375 147.75 162.929688 147.488281 161.609375 C 147.222656 160.289062 147.023438 158.960938 146.890625 157.621094 C 146.757812 156.28125 146.691406 154.9375 146.6875 153.59375 Z M 229.230469 194.632812 C 228.683594 194.296875 228.101562 194.046875 227.484375 193.882812 C 226.863281 193.714844 226.234375 193.640625 225.59375 193.65625 C 224.953125 193.671875 224.328125 193.777344 223.71875 193.972656 C 223.109375 194.171875 222.539062 194.449219 222.007812 194.8125 C 220.789062 195.804688 219.527344 196.742188 218.222656 197.625 C 216.921875 198.507812 215.582031 199.335938 214.207031 200.101562 C 212.835938 200.871094 211.429688 201.578125 209.996094 202.226562 C 208.558594 202.871094 207.101562 203.457031 205.613281 203.976562 C 204.128906 204.5 202.625 204.957031 201.101562 205.347656 C 199.574219 205.738281 198.035156 206.0625 196.484375 206.324219 C 194.933594 206.582031 193.371094 206.773438 191.800781 206.898438 C 190.234375 207.023438 188.660156 207.078125 187.085938 207.066406 C 185.511719 207.054688 183.941406 206.976562 182.375 206.832031 C 180.808594 206.683594 179.25 206.472656 177.703125 206.191406 C 176.152344 205.910156 174.617188 205.5625 173.101562 205.148438 C 171.582031 204.738281 170.082031 204.261719 168.605469 203.71875 C 167.128906 203.175781 165.675781 202.570312 164.25 201.902344 C 162.824219 201.238281 161.429688 200.507812 160.066406 199.722656 C 158.703125 198.933594 157.378906 198.089844 156.085938 197.1875 C 154.796875 196.289062 153.546875 195.332031 152.339844 194.324219 C 151.414062 193.898438 150.445312 193.710938 149.429688 193.765625 C 148.414062 193.820312 147.46875 194.105469 146.589844 194.625 C 144.066406 196.304688 141.65625 198.128906 139.359375 200.105469 C 137.058594 202.082031 134.890625 204.191406 132.855469 206.4375 C 130.816406 208.679688 128.921875 211.039062 127.175781 213.515625 C 125.429688 215.996094 123.839844 218.570312 122.410156 221.242188 C 120.980469 223.914062 119.722656 226.664062 118.632812 229.492188 C 117.542969 232.324219 116.628906 235.207031 115.894531 238.148438 C 115.160156 241.089844 114.609375 244.0625 114.242188 247.074219 C 113.875 250.082031 113.695312 253.101562 113.699219 256.132812 C 113.699219 256.546875 113.738281 256.957031 113.820312 257.363281 C 113.898438 257.769531 114.019531 258.164062 114.179688 258.542969 C 114.335938 258.925781 114.53125 259.289062 114.761719 259.632812 C 114.988281 259.980469 115.25 260.296875 115.542969 260.589844 C 115.835938 260.882812 116.15625 261.144531 116.5 261.375 C 116.84375 261.601562 117.207031 261.796875 117.589844 261.957031 C 117.972656 262.113281 118.367188 262.234375 118.773438 262.3125 C 119.175781 262.394531 119.585938 262.433594 120 262.433594 L 255.628906 262.433594 C 256.042969 262.433594 256.453125 262.394531 256.859375 262.3125 C 257.265625 262.234375 257.660156 262.113281 258.042969 261.957031 C 258.421875 261.796875 258.785156 261.601562 259.132812 261.375 C 259.476562 261.144531 259.792969 260.882812 260.085938 260.589844 C 260.378906 260.296875 260.640625 259.980469 260.871094 259.632812 C 261.101562 259.289062 261.292969 258.925781 261.453125 258.542969 C 261.609375 258.164062 261.730469 257.769531 261.8125 257.363281 C 261.890625 256.957031 261.929688 256.546875 261.929688 256.132812 C 261.929688 253.109375 261.742188 250.09375 261.371094 247.09375 C 261.003906 244.089844 260.449219 241.125 259.71875 238.1875 C 258.984375 235.253906 258.078125 232.375 256.992188 229.554688 C 255.90625 226.730469 254.65625 223.984375 253.234375 221.3125 C 251.816406 218.640625 250.238281 216.066406 248.503906 213.589844 C 246.769531 211.113281 244.890625 208.75 242.867188 206.5 C 240.847656 204.253906 238.695312 202.136719 236.414062 200.152344 C 234.128906 198.164062 231.738281 196.328125 229.230469 194.632812 Z M 229.230469 194.632812 " fill-opacity="1" fill-rule="nonzero"/></g></svg>